<?xml version="1.0" encoding="UTF-8"?>
<svg id="Capa_1" data-name="Capa 1" xmlns="http://www.w3.org/2000/svg" viewBox="0 0 312.96 119.31">
  <defs>
    <style>
      .cls-1 {
        fill: #000;
      }

      .cls-1, .cls-2 {
        stroke-width: 0px;
      }

      .cls-2 {
        fill: #fff;
      }
    </style>
  </defs>
  <g>
    <path class="cls-1" d="M56.55,80.36c2.62,8.92,13.52,12.77,21.36,7.73,4.23-2.72,6.53-2.8,8.15-.29,1.7,2.64.52,5.38-3.41,7.88-8.58,5.48-20.41,4.47-28.09-2.41-8.03-7.19-10.25-18.65-5.46-28.22,4.77-9.54,15.26-14.56,25.91-12.41,10.16,2.05,17.92,10.85,18.64,21.12.33,4.68-1.15,6.24-5.99,6.25-10.08.03-20.16.03-30.24.05-.21,0-.42.13-.87.28ZM83.68,71.15c-1.06-5.67-6.93-10.05-13.34-10.11-6.66-.06-12.54,4.22-13.7,10.11h27.05Z"/>
    <path class="cls-1" d="M26.6,82.15c6.07-15.61,11.78-30.33,17.5-45.05.28-.73.54-1.47.86-2.19,1.06-2.42,2.97-3.4,5.45-2.68,2.73.78,3.7,2.91,3,5.53-.63,2.37-1.66,4.63-2.55,6.93-6.58,16.91-13.19,33.81-19.76,50.73-.84,2.15-2.14,4.18-4.54,3.6-1.64-.39-3.65-1.93-4.26-3.46C14.8,76.85,7.46,58.07.3,39.22c-.63-1.66-.19-4.19.7-5.79.52-.94,3.2-1.5,4.41-1,1.41.58,2.69,2.32,3.3,3.85,4.69,11.76,9.2,23.59,13.77,35.39,1.24,3.21,2.52,6.41,4.13,10.49Z"/>
    <path class="cls-1" d="M106.47,56.02c15.55-10.04,35.72.89,34.81,20.28-.27,5.7-.01,11.43-.05,17.15-.03,3.75-1.77,5.84-4.64,5.73-2.76-.11-4.25-2.02-4.27-5.73-.04-6.17.02-12.33-.02-18.5-.05-8.12-5.66-14-13.21-13.91-7.48.08-12.74,5.79-12.77,13.9-.02,6.17.14,12.34-.11,18.49-.07,1.7-.95,3.75-2.16,4.9-.81.77-3.37.87-4.24.16-1.27-1.04-2.36-3.06-2.4-4.69-.22-9.52-.11-19.06-.11-28.58,0-2.24.03-4.48,0-6.73-.04-2.58.14-5.12,3.07-6.06,3.05-.99,4.82.83,6.1,3.59Z"/>
    <path class="cls-1" d="M189.81,83.03c3.84-9.18,7.33-17.53,10.83-25.87.35-.83.65-1.67,1.05-2.47,1.21-2.42,3.25-3.09,5.63-2.17,2.46.96,3.37,3.05,2.48,5.49-1.37,3.79-3,7.48-4.56,11.2-6.42,15.4-12.79,30.83-19.38,46.16-.69,1.61-2.5,3.36-4.13,3.8-3.34.9-5.66-2.87-4.18-6.62,2.02-5.1,4.34-10.09,6.24-15.23.55-1.48.63-3.52.05-4.96-4.23-10.61-8.7-21.13-13.07-31.68-1.85-4.47-1.41-6.99,1.35-8.15,2.92-1.23,5.03.27,6.95,4.87,3.45,8.27,6.91,16.52,10.72,25.62Z"/>
    <path class="cls-1" d="M144.95,61.25c-4.49-.59-6.41-2.13-6.17-4.86.3-3.43,2.72-4.32,6.17-4.32,0-4.61-.02-9.16.01-13.72,0-1.11-.21-2.64.4-3.24,1.31-1.27,3.03-2.73,4.69-2.88,2.15-.19,3.66,1.6,3.72,3.94.11,4.03.06,8.07.07,12.1,0,1.2,0,2.4,0,3.6,3.87.87,9.48-1.31,9.46,4.72-.02,5.93-5.58,3.92-9.19,4.67,0,7.79-.21,15.49.1,23.18.14,3.37,2.63,5.3,6.07,5.71.67.08,1.34.11,2.01.19,2.77.33,4.31,1.86,4.18,4.68-.12,2.69-1.81,4.13-4.38,4.13-8.37,0-15.57-2.91-16.72-13.25-.62-5.54-.33-11.19-.42-16.79-.04-2.56,0-5.12,0-7.86Z"/>
  </g>
  <path class="cls-1" d="M293.72,40.89c-.3,1.29-.49,2.97-1.07,4.5-7.8,20.55-15.61,41.11-23.54,61.61-3.08,7.98-8.84,10.4-16.79,7.37-12.76-4.86-25.51-9.75-38.25-14.65-7.99-3.07-10.76-8.75-7.79-16.64,7.74-20.58,15.49-41.15,23.6-61.59,1.11-2.81,3.85-5.57,6.56-7.03,8.77-4.77,17.84-8.99,26.85-13.29,6.07-2.9,15.16-.18,17.76,5.77,4.34,9.91,8.15,20.05,12.12,30.13.41,1.05.35,2.29.55,3.82ZM268.76,7.32c-3.85.02-7.31,3.49-7.35,7.38-.05,4.24,3.38,7.56,7.67,7.41,3.98-.13,7.31-3.61,7.18-7.48-.13-3.73-3.82-7.33-7.5-7.32Z"/>
  <path class="cls-1" d="M274.23,106.47c6.75-17.66,13.08-34.25,19.42-50.83.31-.03.61-.07.92-.1.53,2.6,1.13,5.19,1.58,7.8,1.66,9.67,3.28,19.35,4.9,29.03,1.14,6.81-.76,9.53-7.6,10.77-6.02,1.09-12.06,2.09-19.23,3.33Z"/>
  <path class="cls-1" d="M306.59,94.6c-1.95-11.39-3.89-22.77-5.83-34.14l1.23-.41c2.17,5.59,4.33,11.17,6.5,16.76,1.2,3.09,2.44,6.16,3.6,9.27,1.97,5.29.83,7.13-5.49,8.53Z"/>
  <path class="cls-2" d="M268.76,7.32c3.67-.02,7.37,3.59,7.5,7.32.13,3.87-3.2,7.34-7.18,7.48-4.29.14-7.72-3.17-7.67-7.41.05-3.89,3.51-7.36,7.35-7.38Z"/>
</svg>