<?xml version="1.0" encoding="UTF-8"?>
<svg id="Capa_1" data-name="Capa 1" xmlns="http://www.w3.org/2000/svg" viewBox="0 0 196.34 52.55">
  <defs>
    <style>
      .cls-1 {
        fill: #000;
        stroke-width: 0px;
      }
    </style>
  </defs>
  <path class="cls-1" d="M38.87,4.33c.58,0,1.05.18,1.41.55.35.37.53.85.53,1.44,0,.27-.06.6-.19.96l-16.71,43.88c-.21.46-.48.8-.81,1.03-.33.23-.67.34-1,.34-.38,0-.73-.11-1.06-.34-.33-.23-.56-.55-.69-.96L3.7,7.42c-.08-.14-.15-.3-.19-.48-.04-.18-.06-.37-.06-.55,0-.64.21-1.15.63-1.51.42-.37.83-.55,1.25-.55.88,0,1.5.5,1.88,1.51l15.65,41.13h-1.13L37.12,5.7c.42-.92,1-1.38,1.75-1.38Z"/>
  <path class="cls-1" d="M50.7,4.4h22.91c.54,0,1,.2,1.38.58.38.39.56.88.56,1.48s-.19,1.08-.56,1.44c-.38.37-.83.55-1.38.55h-21.47l.63-1.17v19.33l-.69-.89h18.71c.54,0,1,.21,1.38.62s.56.89.56,1.44c0,.6-.19,1.08-.56,1.44-.38.37-.83.55-1.38.55h-18.59l.56-.69v19.81l-.31-.41h21.15c.54,0,1,.21,1.38.62.38.41.56.89.56,1.44,0,.6-.19,1.08-.56,1.44-.38.37-.83.55-1.38.55h-22.91c-.54,0-.99-.21-1.35-.62-.35-.41-.53-.89-.53-1.44V6.46c0-.55.18-1.03.53-1.44.35-.41.8-.62,1.35-.62Z"/>
  <path class="cls-1" d="M116.42,4.4c.54,0,.97.18,1.28.55.31.37.47.83.47,1.38v44.02c0,.69-.2,1.23-.59,1.62-.4.39-.85.58-1.35.58-.29,0-.57-.06-.85-.17-.27-.11-.49-.29-.66-.52l-27.91-41.27,1.06-.69v40.79c0,.51-.17.94-.5,1.31-.33.37-.75.55-1.25.55-.54,0-.97-.18-1.28-.55-.31-.37-.47-.8-.47-1.31V6.46c0-.64.18-1.15.53-1.51.35-.37.78-.55,1.28-.55.25,0,.52.06.81.17.29.11.52.31.69.58l27.6,40.86-.63,1.24V6.32c0-.55.17-1.01.5-1.38.33-.37.75-.55,1.25-.55Z"/>
  <path class="cls-1" d="M128.06,8.32c-.5,0-.94-.18-1.31-.55-.38-.37-.56-.83-.56-1.38,0-.6.19-1.08.56-1.44.38-.37.81-.55,1.31-.55h29.73c.54,0,1,.18,1.38.55.38.37.56.85.56,1.44s-.19,1.07-.56,1.41c-.38.34-.83.52-1.38.52h-29.73ZM142.95,52.55c-.58,0-1.06-.21-1.44-.62s-.56-.89-.56-1.44V6.67h3.94v43.82c0,.55-.19,1.03-.56,1.44s-.84.62-1.38.62Z"/>
  <path class="cls-1" d="M194.46,4.12c.54,0,.99.23,1.35.69.35.46.53.92.53,1.38,0,.23-.03.46-.09.69-.06.23-.16.44-.28.62l-14.71,22.22.75-2.68v23.46c0,.55-.19,1.03-.56,1.44s-.83.62-1.38.62-1-.21-1.38-.62-.56-.89-.56-1.44v-22.97l.38,1.65-14.33-21.53c-.17-.23-.29-.47-.38-.72-.08-.25-.13-.49-.13-.72,0-.6.22-1.09.66-1.48.44-.39.89-.58,1.35-.58.63,0,1.15.32,1.56.96l13.46,20.15-.94-.14,13.08-19.95c.42-.69.96-1.03,1.63-1.03Z"/>
</svg>