<?xml version="1.0" encoding="UTF-8"?>
<svg id="Capa_1" data-name="Capa 1" xmlns="http://www.w3.org/2000/svg" viewBox="0 0 273.67 70.94">
  <defs>
    <style>
      .cls-1 {
        fill: #000;
        stroke-width: 0px;
      }
    </style>
  </defs>
  <g>
    <path class="cls-1" d="M36.39,22.72c.58,0,1.05.18,1.41.55.35.37.53.85.53,1.44,0,.27-.06.6-.19.96l-16.71,43.88c-.21.46-.48.8-.81,1.03-.33.23-.67.34-1,.34-.38,0-.73-.11-1.06-.34-.33-.23-.56-.55-.69-.96L1.22,25.81c-.08-.14-.15-.3-.19-.48-.04-.18-.06-.37-.06-.55,0-.64.21-1.15.63-1.51.42-.37.83-.55,1.25-.55.88,0,1.5.5,1.88,1.51l15.65,41.13h-1.13l15.4-41.27c.42-.92,1-1.38,1.75-1.38Z"/>
    <path class="cls-1" d="M48.22,22.79h22.91c.54,0,1,.2,1.38.58.38.39.56.88.56,1.48s-.19,1.08-.56,1.44c-.38.37-.83.55-1.38.55h-21.47l.63-1.17v19.33l-.69-.89h18.71c.54,0,1,.21,1.38.62s.56.89.56,1.44c0,.6-.19,1.08-.56,1.44-.38.37-.83.55-1.38.55h-18.59l.56-.69v19.81l-.31-.41h21.15c.54,0,1,.21,1.38.62.38.41.56.89.56,1.44,0,.6-.19,1.08-.56,1.44-.38.37-.83.55-1.38.55h-22.91c-.54,0-.99-.21-1.35-.62-.35-.41-.53-.89-.53-1.44V24.85c0-.55.18-1.03.53-1.44.35-.41.8-.62,1.35-.62Z"/>
    <path class="cls-1" d="M113.94,22.79c.54,0,.97.18,1.28.55.31.37.47.83.47,1.38v44.02c0,.69-.2,1.23-.59,1.62-.4.39-.85.58-1.35.58-.29,0-.57-.06-.85-.17-.27-.11-.49-.29-.66-.52l-27.91-41.27,1.06-.69v40.79c0,.51-.17.94-.5,1.31-.33.37-.75.55-1.25.55-.54,0-.97-.18-1.28-.55-.31-.37-.47-.8-.47-1.31V24.85c0-.64.18-1.15.53-1.51.35-.37.78-.55,1.28-.55.25,0,.52.06.81.17.29.11.52.31.69.58l27.6,40.86-.63,1.24V24.71c0-.55.17-1.01.5-1.38.33-.37.75-.55,1.25-.55Z"/>
    <path class="cls-1" d="M125.58,26.71c-.5,0-.94-.18-1.31-.55-.38-.37-.56-.83-.56-1.38,0-.6.19-1.08.56-1.44.38-.37.81-.55,1.31-.55h29.73c.54,0,1,.18,1.38.55.38.37.56.85.56,1.44s-.19,1.07-.56,1.41c-.38.34-.83.52-1.38.52h-29.73ZM140.47,70.94c-.58,0-1.06-.21-1.44-.62s-.56-.89-.56-1.44V25.06h3.94v43.82c0,.55-.19,1.03-.56,1.44s-.84.62-1.38.62Z"/>
    <path class="cls-1" d="M191.98,22.51c.54,0,.99.23,1.35.69.35.46.53.92.53,1.38,0,.23-.03.46-.09.69-.06.23-.16.44-.28.62l-14.71,22.22.75-2.68v23.46c0,.55-.19,1.03-.56,1.44s-.83.62-1.38.62-1-.21-1.38-.62-.56-.89-.56-1.44v-22.97l.38,1.65-14.33-21.53c-.17-.23-.29-.47-.38-.72-.08-.25-.13-.49-.13-.72,0-.6.22-1.09.66-1.48.44-.39.89-.58,1.35-.58.63,0,1.15.32,1.56.96l13.46,20.15-.94-.14,13.08-19.95c.42-.69.96-1.03,1.63-1.03Z"/>
  </g>
  <g>
    <path class="cls-1" d="M193.38,40.19c6.87-6.9,13.73-13.81,20.6-20.7,3.65-3.66,7.33-7.29,11.01-10.93.81-.8,1.64-1.6,2.5-2.35,1.5-1.29,3.24-2.06,5.23-2.25,2.42-.23,4.85-.48,7.27-.69,3.48-.3,6.96-.56,10.44-.84.99-.08,1.98-.15,2.97-.24,4.51-.39,8.93,3.14,8.84,8.1-.04,2.32-.23,4.63-.4,6.94-.16,2.15-.37,4.29-.57,6.43-.02.23-.06.47-.11.79-.44-.31-.83-.54-1.18-.83-.86-.73-1.7-1.49-2.55-2.23-.58-.51-.63-1.2-.59-1.88.16-2.61.35-5.22.52-7.83.04-.55,0-1.1.02-1.65.04-1.49-1.77-3.13-3.44-2.98-2.63.24-5.27.36-7.91.57-4.13.34-8.25.73-12.38,1.06-1.33.11-2.41.65-3.34,1.57-3.5,3.44-7.02,6.85-10.5,10.31-5.77,5.73-11.51,11.48-17.26,17.23-.8.8-1.58,1.6-2.35,2.38,8.07,8.07,16.15,16.14,24.27,24.27,10.27-10.34,20.72-20.58,30.98-31.18,1.19.63,2.53,1.33,3.86,2.04.32.17.13.39,0,.55-.57.68-1.12,1.39-1.74,2.03-8.22,8.3-16.44,16.59-24.67,24.88-2.79,2.81-5.6,5.61-8.41,8.42-.04.04-.09.08-.16.15-.13-.12-.25-.24-.38-.36-5.86-5.85-11.72-11.7-17.56-17.57-4.31-4.33-8.59-8.69-12.88-13.03-.04-.04-.09-.06-.14-.09,0-.03,0-.06,0-.09Z"/>
    <path class="cls-1" d="M273.67,26.72c-.1.49-.17.99-.29,1.47-.99,3.76-4.02,5.85-8.09,5.64-2.99-.15-5.69-1.12-8.17-2.74-3.53-2.3-6.47-5.21-8.73-8.78-.41-.65-.75-1.35-1.11-2.03-.26-.5-.58-.93-1.08-1.26-1.49-.99-2.19-2.93-1.68-4.62.47-1.53,1.79-2.99,3.9-3.05,1.58-.05,2.86.5,3.72,1.84.93,1.44.99,2.96.13,4.46-.25.43-.26.74,0,1.2,2.05,3.54,4.82,6.35,8.39,8.35,1.44.81,2.98,1.4,4.66,1.51.22.01.45.02.67,0,1.74-.13,2.55-.97,2.57-2.71.01-1.3-.34-2.52-.84-3.71-.58-1.38-1.34-2.65-2.24-3.83-.41-.53-.51-1.09-.45-1.75.12-1.48.18-2.96.26-4.45.02-.38.06-.76.1-1.26.37.27.68.45.92.69,2.81,2.75,5.17,5.82,6.49,9.57.37,1.07.52,2.21.77,3.33.02.08.06.16.08.24v1.87Z"/>
    <path class="cls-1" d="M231.22,27.95c1.55-1.61,3.15-3.26,4.78-4.95.53.5,1.03.97,1.52,1.43-1.06,1.03-2.1,2.05-3.17,3.09.34.29.6.5.85.72.83-.84,1.74-1.76,2.65-2.67.53.55.99,1.02,1.45,1.5-.87.86-1.78,1.78-2.72,2.72.3.26.56.48.85.73,1-1.01,2.05-2.08,3.06-3.11.54.53,1.03,1.02,1.5,1.47-1.65,1.65-3.32,3.31-4.94,4.94-1.94-1.94-3.93-3.93-5.85-5.85Z"/>
    <path class="cls-1" d="M221.17,41.35c-.46.45-.85.9-1.31,1.27-.22.17-.56.24-.85.25-.58.02-1.19.4-1.35.96-.04.15-.02.4.07.48.12.1.37.16.52.1.47-.18.92-.41,1.37-.63.51-.25.99-.54,1.51-.75.89-.37,1.76-.34,2.49.36.74.71,1.07,1.57.73,2.58-.6,1.76-1.79,2.94-3.55,3.52-.84.28-1.58-.06-2.26-.49-.09-.06-.13-.39-.06-.47.42-.48.88-.93,1.35-1.36.09-.08.35-.11.44-.05.6.44,1.06.11,1.46-.27.24-.23.43-.58.5-.91.1-.47-.26-.74-.71-.55-.66.27-1.3.58-1.95.87-.34.15-.68.28-1.02.44-1.41.67-3.06-.48-2.98-2.25.09-1.84,1.88-3.65,3.72-3.79.71-.05,1.29.26,1.9.7Z"/>
    <path class="cls-1" d="M226.75,42.47c.19.5.5.91.43,1.25-.06.33-.51.58-.8.86-.27.27-.56.53-.9.84-.35-.75-.68-1.44-1-2.13-.83-1.81-1.63-3.63-2.48-5.43-.21-.45-.16-.77.2-1.09.3-.27.59-.55.85-.85.27-.32.54-.36.93-.18,2.01.95,4.03,1.88,6.05,2.81.48.22.96.46,1.56.75-.62.66-1.18,1.26-1.71,1.83-.08,0-.12.02-.14,0-.36-.16-.75-.49-1.07-.44-.31.05-.56.49-.84.76-.37.35-.74.69-1.08,1.01ZM226.97,39.61c-.69-.37-1.45-.78-2.2-1.18-.04.04-.08.08-.12.13.39.75.78,1.5,1.21,2.34.41-.47.74-.86,1.11-1.29Z"/>
    <path class="cls-1" d="M226.07,33.03c.5-.55,1.02-1.13,1.62-1.79,1.53,1.52,3.01,2.99,4.51,4.47.88-.92,1.75-1.82,2.59-2.7.58.55,1.08,1.03,1.55,1.47-1.48,1.48-2.96,2.96-4.42,4.42-1.94-1.95-3.93-3.94-5.86-5.88Z"/>
  </g>
</svg>